<svg width="640" height="480" xmlns="http://www.w3.org/2000/svg" xmlns:svg="http://www.w3.org/2000/svg">
 <!-- Created with SVG-edit - https://github.com/SVG-Edit/svgedit-->
 <g class="layer">
  <title>Layer 1</title>
  <ellipse cx="291" cy="212" fill="#ffaa56" id="svg_3" rx="132" ry="199.5" stroke="#000000" stroke-width="5"/>
  <ellipse cx="247" cy="148.25" fill="#ffaa56" id="svg_5" rx="16" ry="23.5" stroke="#000000" stroke-width="5" transform="matrix(1 0 0 1 0 0)"/>
  <ellipse cx="345" cy="146.75" fill="#ffaa56" id="svg_6" rx="15" ry="23" stroke="#000000" stroke-width="5"/>
  <ellipse cx="247" cy="155.75" fill="#000000" id="svg_8" rx="8" ry="10" stroke="#000000" stroke-width="5" transform="matrix(1 0 0 1 0 0)"/>
  <ellipse cx="347" cy="155.75" fill="#000000" id="svg_11" rx="6" ry="10" stroke="#000000" stroke-width="5" transform="matrix(1 0 0 1 0 0)"/>
  <path d="m230,301.75c1.83333,0.16666 2.30554,0.76968 2.94733,1.35266c0.57932,0.52625 1.37436,0.45245 2.25134,0.64868c0.80704,0.18057 1.32201,0.98602 2.20132,0.99866c0.89543,0.01285 1.40686,0.6705 2.12083,0.97916c0.80722,0.34897 1.77917,0.02084 2.67917,0.02084c0.90001,0 1.8,0 2.68533,0c0.94,0 1.63068,0 2.70401,0c0.81065,0 1.71066,0 2.61066,0c0.90001,0 1.8,0 2.60001,0c0.89999,0 1.8,0 2.7,0c0.89999,0 1.79999,0 2.70001,0c0.89999,0 1.83823,-0.17355 2.59998,0.08533c0.88794,0.30176 1.59946,0.89667 2.5,0.91467c0.89984,0.01801 1.80002,0 2.70001,0c0.79999,0 1.70001,0.05716 2.5,0.5c0.79999,0.44284 1.70132,0.5 2.66666,0.5c0.65869,0 1.66669,0 2.52884,0c0.90451,0 1.8045,0 2.7045,0c0.90451,0 1.76666,0 2.60001,0c0.97849,0 1.79868,0 2.63599,0c1.01669,0 1.71133,0 2.72803,0c0.93597,0 1.836,0 2.73599,0c0.89999,0 1.65717,0 2.55267,0c0.86331,0 1.83307,0.10034 2.758,-0.01068c0.92825,-0.11142 1.61151,-0.50745 2.58932,-0.98932c0.59631,-0.29385 1.32233,-0.71313 2.25635,-0.94733c0.78561,-0.19696 1.79672,-0.33783 2.43033,-0.478c1.01208,-0.22388 1.97656,-0.43738 2.79449,-0.51752c0.85022,-0.08331 1.89349,-0.05716 2.84048,-0.05716c0.72,0 1.845,0 2.62653,0c0.7905,0 1.71848,0 2.63049,0c0.82132,0 1.72131,0 2.62134,0c0.89999,0 1.80035,0.02386 2.59998,0c0.95847,-0.02859 1.84113,-0.38156 2.54733,-0.64734c0.88257,-0.33215 1.85269,-0.35266 2.75269,-0.35266c0.89999,0 1.69998,0 2.60001,0c0.89999,0 1.79999,0 2.69998,0c0.89999,0 1.80002,0 2.70001,0c0.89999,0 1.69998,0 2.60001,0c0.89999,0 1.6817,-0.12656 2.35266,-0.64734c0.58377,-0.45313 1.54733,-0.35266 2.44733,-0.35266c0.89999,0 1.79999,0 2.70001,0c0.89999,0 1.80084,0.0372 2.59998,0c0.91766,-0.04272 1.41525,-0.93912 2.30002,-1c0.89786,-0.0618 1.69998,0 2.61465,-0.08533l0.452,-0.74802l0.74933,-0.45065" fill="none" id="svg_15" stroke="#ff0000" stroke-width="5" transform="matrix(1 0 0 1 0 0)"/>
  <path d="m289,298.75c-1.2215,-0.87851 -2.23297,-0.7547 -2.91599,-1.284c-0.6297,-0.48798 -1.2995,-0.98386 -1.884,-1.51733c-0.7197,-0.65689 -1.45319,-0.98862 -2.30002,-1.42001c-0.76373,-0.38907 -1.53592,-0.77332 -2.38531,-0.77866c-0.72534,-0.00455 -1.9212,0.07864 -2.67868,-0.03601c-0.97141,-0.14703 -1.77313,-0.44403 -2.47882,-1.01666c-0.61862,-0.50198 -1.13544,-1.07104 -1.95718,-1.522c-0.77997,-0.42804 -1.69998,-0.42532 -2.60001,-0.42532c-0.89999,0 -1.80084,-0.0372 -2.59998,0c-0.91766,0.04272 -1.41525,0.93912 -2.30002,1c-0.89786,0.0618 -1.45438,0.41769 -2.12149,0.87851c-0.72971,0.50406 -1.7789,0.09613 -2.57849,0.12149c-0.9014,0.02859 -1.62259,0.68552 -2.5,0.94284c-0.8642,0.25345 -1.51392,0.48105 -1.98535,1.25717c-0.41081,0.67636 -1.09749,1.21759 -1.81467,1.89981c-0.58632,0.55774 -1.50853,0.72025 -2.1955,1.25735c-0.74388,0.5816 -0.9865,1.6001 -1.8045,1.64282c-0.89877,0.04694 -1.7,0 -2.59999,0c-0.90001,0 -1.87971,-0.3667 -2.77917,0.02084c-0.71434,0.3078 -1.23042,1.02289 -2.02083,1.47916c-0.70464,0.40674 -1.65428,0.31671 -2.5,0.66666c-0.78462,0.32468 -1.53206,0.76813 -2.3,1.186c-0.84091,0.45758 -1.7,0.64734 -2.5,0.64734l-0.89999,0l-0.90001,0l-0.89999,0" fill="none" id="svg_16" stroke="#ff0000" stroke-width="5" transform="matrix(1 0 0 1 0 0)"/>
  <path d="m287,297.75c0.91599,-0.284 1.36212,-0.93643 2,-1.5c0.5835,-0.5155 0.52994,-1.36417 1.05716,-2.14282c0.46246,-0.68301 1.64291,-0.3465 2.54285,-0.35718c0.87933,-0.01044 1.33661,-0.77481 2.10449,-0.99551c0.86069,-0.24738 1.85522,0.30542 2.68484,-0.01517c0.79291,-0.3064 1.31525,-0.97647 2.21066,-0.98932c0.8793,-0.01263 1.53836,-0.44937 2.116,-1.08401c0.58856,-0.64667 1.23776,-1.15811 1.98401,-1.56332c0.76111,-0.41327 1.7348,-0.10977 2.59549,-0.35715c0.76788,-0.2207 1.31509,-0.99017 2.2045,-0.99551c0.89996,-0.0054 1.79999,0 2.70001,0c0.89999,0 1.79999,0 2.59998,0c0.90002,0 1.80002,0 2.70001,0c0.89999,0 1.79999,0 2.70001,0c0.90015,0 1.68533,0 2.62534,0c0.69064,0 1.76398,0 2.67465,0c0.89999,0 1.79999,0 2.70001,0c0.89999,0 1.80045,-0.02707 2.59998,0c0.8443,0.02859 1.36667,0.83334 2.20001,1c0.83334,0.16666 1.29144,0.86484 2.20001,1.00134c0.80783,0.12137 1.45798,0.74908 2.09998,1.29416c0.75458,0.64066 1.55862,0.92899 1.70016,1.8045c0.14606,0.90353 0.65347,1.46042 1.29535,2.19998c0.57864,0.66669 0.70316,1.5 0.78983,2.41467l0.74802,0.452l0.45065,0.74933l0.69067,0.50934" fill="none" id="svg_17" stroke="#ff0000" stroke-width="5" transform="matrix(1 0 0 1 0 0)"/>
  <path d="m234,302.75c0.28534,0.91599 1.12404,1.19308 1.7,1.7045c0.73227,0.65024 1.53236,0.97696 2.216,1.5795c0.59764,0.52673 1.1958,1.15833 2.084,1.54935c0.65764,0.28952 1.63985,0.13043 2.41066,0.60266c0.80428,0.49274 1.38129,1.03854 2.42267,1.39734c0.73747,0.25409 1.54874,0.62244 2.36534,1.08264c0.7029,0.39612 0.91397,1.32037 1.563,1.72684c0.7944,0.4975 1.53073,0.6084 2.405,1.19052c0.74707,0.49744 1.37125,0.91373 2.24399,1.13065c0.88448,0.21985 1.76401,0.03601 2.70399,0.03601c0.98535,0 1.92178,-0.16815 2.68533,0.08533c0.77219,0.25635 1.50388,0.87018 2.52118,0.91483c0.65768,0.02887 1.37515,0.61093 2.11484,0.96384c0.87106,0.41559 1.69858,0.43024 2.564,0.86935c0.67538,0.34268 1.21524,1.10577 2.10001,1.16666c0.89786,0.0618 1.57843,0.28522 2.18399,0.91599c0.54999,0.57288 1.15155,1.0636 2.116,1.08401c0.89981,0.01904 1.72406,0.19305 2.30002,0.7045c0.73227,0.65021 1.50464,1.17056 2.39999,1.29565c0.90646,0.12665 1.43774,0.74454 2.29999,0.96384c0.86877,0.22095 1.5412,0.61337 2.21066,1.06134c0.73544,0.49213 1.58633,0.93195 2.48935,0.97467c0.89899,0.04251 1.69998,0 2.60001,0c0.89999,0 1.79999,0 2.69998,0c0.89999,0 1.80002,0 2.70001,0c0.89999,0 1.69998,0 2.60001,0c0.89999,0 1.79999,0 2.69998,0c0.89999,0 1.80133,0.00388 2.48535,0c0.94003,-0.00534 1.94791,-0.16684 2.59381,-0.5c0.92072,-0.47491 1.67484,-0.85645 2.32083,-1.216c0.79034,-0.43991 1.68063,-0.86084 2.24167,-1.30484c0.63828,-0.50513 1.62759,-1.12527 2.4375,-1.4375c0.74048,-0.28546 1.75958,-0.39456 2.47269,-0.89432c0.68375,-0.47919 1.39999,-0.64508 2.2955,-0.64734c0.91931,-0.00229 1.75266,0 2.73114,0c0.82019,0 1.72153,0 2.62152,0c0.89999,0 1.79999,0 2.69998,0c0.90002,0 1.80441,0.08868 2.70001,0c0.8457,-0.08374 1.28238,-0.95721 2.20001,-1c0.89883,-0.0419 1.40863,-0.50784 2.15717,-0.94284c0.73038,-0.42447 1.87497,0.18707 2.55881,-0.34116c0.6275,-0.48471 1.54291,-0.53439 2.05869,-1.15201c0.52786,-0.63208 1.05981,-1.30624 1.82532,-1.64801c0.74353,-0.33197 1.53912,-0.8067 2.17468,-1.34131c0.64935,-0.5462 1.35535,-1.02631 1.85867,-1.74133c0.4892,-0.69495 -0.22632,-1.7637 0.25198,-2.548c0.49008,-0.80365 1.10553,-1.40582 0.91467,-2.28534c-0.14667,-0.67581 -0.88605,-0.19641 -1.65268,0.3045c-0.69409,0.45352 -1.47452,1.17105 -1.93665,1.87015c-0.52509,0.79434 -1.09915,1.23608 -1.88983,1.82535c-0.63571,0.47375 -1.327,0.62854 -2.08484,1.03601c-0.72934,0.39212 -0.97363,1.41644 -1.73151,1.91132c-0.6954,0.45407 -1.25534,0.99277 -2.00449,1.40533c-0.83856,0.46179 -1.46359,0.9585 -2.05267,1.59467c-0.53299,0.57559 -1.32547,0.73639 -2.1265,1.07352c-0.7406,0.31171 -1.40027,0.87512 -2.03818,1.06317c-1.00516,0.29633 -1.78128,0.88739 -2.68268,0.91599c-0.89954,0.02853 -1.80084,-0.0372 -2.59998,0c-0.91766,0.04272 -1.35431,0.91626 -2.20001,1c-0.79608,0.07883 -1.7265,-0.18372 -2.60001,0.03601c-0.86279,0.21704 -1.59698,0.92126 -2.5,0.96399c-0.89899,0.04251 -1.6601,-0.06802 -2.54816,0.00449c-1.02789,0.08392 -1.56039,0.73889 -2.35184,1.16217c-0.74881,0.40045 -1.49982,0.82291 -2.39999,0.83334c-0.89993,0.01041 -1.80002,0 -2.70001,0c-0.89999,0 -1.69998,0 -2.60001,0c-0.89999,0 -1.79999,0 -2.69998,0c-0.89999,0 -1.80133,0 -2.76666,0c-0.65869,0 -1.66669,0 -2.52884,0c-0.90451,0 -1.8045,0 -2.71518,0c-0.91064,0 -1.76398,0 -2.70398,0c-0.88535,0 -1.82175,0.40274 -2.60001,-0.08533c-0.74042,-0.46436 -1.172,-0.914 -2.11069,-0.91467c-1.008,-0.00073 -1.87015,0 -2.77466,0c-0.81067,0 -1.72131,0 -2.57465,0c-0.94,0 -1.92609,0.03665 -2.82535,0c-0.70175,-0.02859 -1.42273,-0.68491 -2.29999,-0.94284c-0.86539,-0.25446 -1.69125,-0.39719 -2.20001,-1.05716c-0.58975,-0.76505 -1.24658,-1.31763 -1.784,-1.91599c-0.57343,-0.63846 -1.1319,-1.16656 -1.76868,-1.73135c-0.70145,-0.62216 -1.18506,-1.14536 -2.04715,-1.35281c-0.84012,-0.20218 -1.25604,-0.97125 -2.20016,-0.99985c-0.8996,-0.02725 -1.80002,0 -2.70001,0c-0.79999,0 -1.70006,0.01068 -2.60001,0c-0.87935,-0.01044 -1.40205,-0.60959 -2.10449,-1.05267c-0.7719,-0.48691 -1.5955,-0.89465 -2.39534,-1.16882l-0.61482,-0.57983l-0.27467,-0.79868l-0.01067,-0.89999" fill="none" id="svg_18" stroke="#ff0000" stroke-width="5" transform="matrix(1 0 0 1 0 0)"/>
  <path d="m317,293.75c1.02084,-0.5 1.82236,-0.9068 2.62534,-0.98932c1.022,-0.10504 1.72198,-0.01068 2.73868,-0.01068c0.93597,0 1.836,0 2.73599,0c0.89999,0 2.52933,0.82935 2.52933,0c0,-0.92932 -1.82935,0 -2.72934,0c-0.89999,0 -1.66617,0.03104 -2.55716,0.35266c-0.75562,0.27277 -1.73901,0.59497 -2.50684,0.63666c-0.94931,0.05154 -1.836,0.01068 -2.63599,0.01068c-0.90002,0 -1.81308,-0.10855 -0.99869,0.284c0.59821,0.28833 1.45456,0.68234 2.20319,0.71152c1.19012,0.04639 2.01169,-0.10382 2.83832,0.36166c0.86548,0.48734 1.17227,1.31738 2.05716,1.58566c0.86304,0.26166 1.80002,0.05716 2.70001,0.05716c0.79999,0 1.70001,0 2.60001,0c0.89999,0 2.13177,0.12543 2.38931,-0.61066c0.26443,-0.75574 -0.64285,-1.57684 -1.40448,-2.04202c-0.59586,-0.36392 -1.25607,-0.65381 -2.32068,-1.32599c-0.59207,-0.37384 -1.21411,-0.92844 -2.03351,-1.504c-0.73703,-0.5177 -1.24066,-0.9133 -2.30899,-1.27432c-0.85522,-0.289 -1.90015,-0.24301 -2.72034,-0.24301c-0.90134,0 -1.80136,-0.0054 -2.70132,0c-0.8894,0.00534 -1.37393,0.72559 -2.11066,0.98932c-0.83737,0.29977 -1.78934,0.01068 -2.68933,0.01068c-0.90002,0 -1.80002,0 -2.70001,0c-0.79999,0 -1.70001,0 -2.60001,0c-0.89999,0 -1.81067,0 -2.72131,0c-0.85333,0 -1.80008,-0.1091 -2.67868,0c-0.89877,0.1116 -0.68542,1.02689 0.02084,1.5c0.7926,0.53094 1.40829,1.07532 2.18317,1.41733c0.81284,0.35876 1.84891,0.64865 2.47198,0.93335c0.64899,0.29654 1.80389,0.88565 2.45251,1.035c0.95328,0.21948 1.83817,0.3349 2.4715,0.689c0.86124,0.48151 1.79999,0.42532 2.69998,0.42532c0.90002,0 1.80017,0 2.58536,0c0.94,0 1.63065,0 2.70398,0c0.91068,0 1.81067,0 2.71066,0c0.90002,0 1.80002,0 2.70001,0c0.79999,0 1.34534,0 0.64368,0c-1.02902,0 -1.97702,0 -2.64902,0c-0.98932,0 -1.85165,0 -2.79199,0c-0.90268,0 -1.80267,0 -2.70267,0c-0.89999,0 -1.80457,0.01077 -2.66666,0c-0.83353,-0.01044 -1.7915,-0.26178 -2.45868,-0.57468c-0.83615,-0.39215 -1.72198,-0.42307 -2.62201,-0.42532c-0.91931,-0.00229 -1.75266,0 -2.73114,0c-0.82019,0 -1.72153,0 -2.62152,0c-0.89999,0 -1.77725,-0.00424 -1.51199,0.08533c0.76892,0.25961 1.62503,0.7204 2.35934,1.21017c0.63412,0.42297 1.59665,0.63315 2.35397,0.78851c1.01309,0.20782 1.78494,0.62085 2.79602,0.83197c0.72321,0.151 1.44519,0.72037 2.3125,1.02686c0.60736,0.21463 1.65417,0.05716 2.59015,0.05716c0.90002,0 1.80017,0 2.58536,0c0.94,0 1.948,0 2.70398,0c0.91068,0 1.81067,0 2.71066,0c0.90002,0 1.80002,0 2.70001,0c0.79999,0 1.7265,0.18372 2.60001,-0.03601c0.86279,-0.21704 1.8894,-0.58438 2.34283,-1.32117c0.44275,-0.71945 0.05716,-1.74283 0.05716,-2.64282c0,-0.79999 -0.01068,-1.70007 0,-2.60001c0.01044,-0.87933 0.6106,-1.39529 1.52084,-1.39999c0.96448,-0.00497 1.70755,-0.04156 2.67899,0.22134c0.79892,0.21622 1.83798,1.2616 2.51352,0.69199c0.51764,-0.43646 -0.58459,-1.26215 -1.48935,-1.74933c-0.36404,-0.19601 -1.20337,-0.59491 -2.724,-1.164c-0.56009,-0.20963 -1.14835,-0.40164 -1.74899,-0.59549c-1.20743,-0.38965 -1.80368,-0.56641 -2.37866,-0.74734c-1.5408,-0.48486 -2.35056,-0.76273 -3.00302,-1.02118c-0.80853,-0.32028 -1.78571,-0.74933 -2.58398,-1.02533c-0.77109,-0.2666 -1.81012,-0.60251 -2.58267,-0.60931c-0.92114,-0.00812 -1.45523,0.80426 -2.20267,1.16531c-0.70792,0.34195 -1.54129,0.7244 -2.26132,0.80801c-0.78903,0.09161 -2.0542,0.31531 -2.75952,0.52533c-0.74664,0.22235 -1.62006,0.40289 -2.62982,0.46399c-0.69785,0.04221 -2.01599,0.03601 -2.57999,0.03601c-0.98401,0 -1.936,0 -2.71753,0c-0.7905,0 -1.90881,0 -2.74283,0c-0.909,0 -1.86676,-0.30478 -2.69833,0.01068c-0.72913,0.27658 -0.74069,1.50668 -0.16782,2.08914c0.61401,0.6243 1.67001,0.8519 2.44116,0.89883c0.95032,0.05783 1.73398,0.03101 2.71149,0.354c0.76279,0.25204 1.66943,0.53091 2.57117,0.814c0.67517,0.21198 1.65524,0.73978 2.42267,0.82266c0.90546,0.09781 1.82156,-0.00836 2.73199,0.01083c0.85388,0.01801 1.74747,0.36685 2.47736,0.71585c0.76382,0.36523 1.70776,0.18607 2.612,0.29468c0.92801,0.11145 1.55319,0.60086 2.56781,0.86783c0.80167,0.21094 1.72153,0.12149 2.62152,0.12149c0.89999,0 1.81067,0 2.72131,0c0.67868,0 1.79764,-0.08722 2.67868,0c0.8457,0.08374 1.23773,0.79269 2.09982,1.00015c0.84012,0.20218 1.29977,0.85599 2.10019,1.28384c0.85583,0.45749 1.5,0.71375 2.39999,0.716c0.89999,0.00223 1.79999,0 2.69998,0c0.89734,0 0.991,0 0.10001,0c-0.89999,0 -1.79999,0 -2.7045,0c-0.86215,0 -1.74817,0.15341 -2.67398,-0.2215c-0.67133,-0.27185 -1.28763,-1.14096 -1.99219,-1.57849c-0.75885,-0.47125 -1.55328,-0.69183 -2.34665,-1c-1.00003,-0.38843 -1.60226,-0.79764 -2.66116,-1.07852c-0.80124,-0.21252 -1.48016,-0.44244 -2.18817,-0.95483c-0.59845,-0.43311 -1.65869,-0.16666 -2.66669,-0.16666c-0.86215,0 -1.66666,0 -2.56665,0c-0.89999,0 -1.80133,0 -2.76666,0c-0.83334,0 -1.81201,0 -2.586,0c-0.90451,0 -1.65207,-0.01923 -2.65002,0.00134c-0.86984,0.01791 -1.93231,0.15677 -2.564,0.28265c-1.01532,0.20233 -1.6687,0.37378 -2.76917,0.59485c-0.74194,0.14905 -1.60559,0.44031 -2.27399,0.83099c-0.78537,0.45905 -1.81726,1.13452 -2.3035,1.4035c-0.82974,0.45901 -1.89505,0.62872 -2.56552,1.108c-0.70462,0.50366 -1.35397,0.6716 -2.23581,1.06265c-0.73956,0.32794 -1.64252,0.71375 -2.53802,0.716c-0.69464,0.00174 -2.60632,0.92209 -2.63382,0c-0.01044,-0.34946 1.29126,-0.15237 2.08649,-0.42532c0.80508,-0.27631 1.59622,-0.52737 2.54285,-0.57019c0.89908,-0.04068 1.86975,0.14532 2.75699,-0.00464c0.85202,-0.14401 1.24817,-0.95343 1.8855,-1.42517c0.71481,-0.52908 1.31726,-0.82779 2.09735,-1.29068c0.82584,-0.49002 1.6745,-0.284 2.57001,-0.284c0.86331,0 1.82648,-0.00232 2.74731,0c0.89551,0.00226 1.59363,0.40854 2.10001,1c0.50891,0.59442 0.54651,1.53342 0.07468,2.39999c-0.39874,0.73233 -0.90622,1.41342 -1.67468,1.82135c-0.64996,0.34503 -1.49994,0.77332 -2.39999,0.77866c-0.89996,0.00534 -1.8045,0 -2.66666,0c-0.83334,0 -1.81183,0 -2.63202,0c-0.90134,0 -1.80133,0 -2.70132,0c-0.89999,0 -1.89313,0.20209 -2.69867,-0.28534c-0.62433,-0.37778 -0.67941,-1.55106 -1.32217,-2.19382c-0.64276,-0.64276 -1.60321,-0.7139 -2.17917,-1.22534c-0.73227,-0.65021 -1.49698,-1.25278 -2.39999,-1.2955c-0.89899,-0.04251 -1.69998,0 -2.53598,0c-0.84802,0 -1.71133,0 -2.72803,0c-0.83731,0 -1.80264,-0.00006 -2.63599,0c-0.97833,0.00009 -1.55438,0.41769 -2.2215,0.87851c-0.72971,0.50406 -1.81332,0.28476 -2.57849,0.03616c-0.79092,-0.25696 -1.72714,-0.66983 -2.49017,-0.96735c-0.76535,-0.2984 -1.14551,-0.94733 -0.35352,-0.94733c0.89551,0 1.97702,0 2.64902,0c0.74399,0 1.86606,-0.1113 2.74283,0.05716c0.93445,0.17957 1.5686,0.7077 2.49466,0.88568c0.94174,0.181 1.70374,0.32071 2.51434,0.7045c0.85229,0.40353 1.64478,0.03595 2.59616,0.36334c0.76682,0.26385 1.90332,1.14084 1.48001,1.82266c-0.38965,0.62762 -1.66934,0.16666 -2.43466,0.16666c-0.99869,0 -1.79868,0 -2.79868,0c-0.80002,0 -1.79984,0 -2.57916,0c-0.99933,0 -1.81952,0 -2.72086,0c-0.89999,0 -1.79999,0 -2.69998,0c-0.89999,0 -1.80002,0 -2.70035,0c-0.71399,0 -1.66766,0 -2.39966,0c-1.16666,0 -1.99692,0.0639 -2.79999,-0.35266c-0.84982,-0.44083 -1.70001,-0.64734 -2.5,-0.64734c-0.828,0 0.1236,-0.03586 0.84164,0.02084c1.13089,0.08932 1.65155,0.2485 2.52084,0.52081c0.66058,0.20694 1.77252,0.62067 2.60684,0.94366c0.8938,0.34604 1.35327,0.53128 2.2825,0.91919c0.46637,0.19467 1.83026,0.78802 2.69098,1.19998c0.42297,0.20245 1.25632,0.61429 2.05585,1.08084c1.21643,0.70981 1.59802,0.99695 2.38,1.51868c0.74872,0.49954 1.41592,1.01358 2.37833,1.43167c0.74835,0.3251 1.66653,0.36414 2.63849,0.7215c0.7735,0.28439 1.44647,0.95557 2.20319,1.35748c0.74811,0.39734 1.70132,0.28986 2.60132,0.28534c0.89554,-0.00452 1.55331,-0.56631 1.59552,-1.35184c0.05432,-1.01074 0.14969,-2.04974 -0.35269,-2.60001c-0.60046,-0.65768 -1.21722,-1.28925 -1.80948,-1.8815c-0.59225,-0.59225 -1.35144,-1.28244 -1.8815,-1.80948c-0.61899,-0.61545 -1.51993,-0.74722 -2.34119,-1.33185c-0.65488,-0.46619 -0.73019,-1.62106 -0.04132,-1.94c0.71387,-0.33051 1.79468,-0.08533 2.73065,-0.08533c0.90002,0 2.07901,-0.39169 2.61469,0.28534c0.50815,0.64224 0.3985,1.65094 0.35599,1.67865c-0.88101,0.57401 -1.63907,-0.31552 -2.31232,-0.48483c-1.07932,-0.27145 -2.13901,-0.57172 -2.79669,-0.77914c-0.9183,-0.28964 -1.49176,-0.46039 -2.47366,-0.90002c-0.82068,-0.36746 -1.3468,-1.35626 -2.04517,-1.74283c-0.82663,-0.45758 -1.67947,-0.3833 -2.44281,-0.77316c-0.7529,-0.38452 -1.70001,-0.284 -2.60001,-0.284c-0.89999,0 -1.80002,0 -2.70001,0c-0.89999,0 -1.78534,0 -2.73599,0c-0.76532,0 -1.75949,0 -2.50684,0c-1.02118,0 -1.85718,0 -2.75717,0c-0.89999,0 -1.69998,0 -2.60001,0c-0.89999,0 -1.79999,0 -2.69998,0c-0.89999,0 -1.80002,0 -2.70001,0c-0.89999,0 -1.90077,-0.4928 -2.61465,0.08533c-0.7446,0.603 -0.07773,1.65985 0.71466,2.08133c0.64061,0.34073 1.49982,0.82291 2.41068,0.83334c0.91058,0.01041 1.58932,0 2.70398,0c0.88535,0 1.64252,0 2.53802,0c0.86331,0 1.84732,0 2.66864,0c0.85333,0 1.79468,0 2.84534,0c0.65869,0 1.66669,0 2.45868,0c1.02734,0 1.78198,-0.33173 2.728,0.01068c0.75922,0.27478 1.00464,1.46988 0.63318,2.28482c-0.36243,0.79507 -1.28342,0.68512 -2.30518,0.70316c-0.99451,0.01755 -1.83466,0.00134 -2.79599,0.00134c-0.88535,0 -1.64252,0 -2.53802,0c-0.86331,0 -1.82648,0 -2.758,0c-0.91064,0 -1.76398,0 -2.70398,0c-0.88535,0 -1.68533,0 -2.58536,0c-0.89999,0 -1.82101,0.01746 -2.62115,-0.00015c-0.8181,-0.01801 -2.40401,-0.388 -2.11433,-0.99969c0.2861,-0.60413 1.63684,0.21896 2.498,0.52069c0.79425,0.27829 1.80182,0.58078 2.61349,0.78815c0.44247,0.11304 1.39484,0.35336 1.89468,0.50534c1.60568,0.48819 2.15738,0.71286 3.28198,1.20001c0.57623,0.2496 1.1499,0.52209 1.72202,0.80698c1.14658,0.57095 2.25955,1.17706 2.80316,1.47818c0.53238,0.29492 1.54306,0.86926 2.01801,1.138c0.87021,0.4924 1.92642,1.0882 2.68448,1.39999c0.87326,0.35919 1.68579,0.73618 2.44052,1.16251c0.52875,0.29868 1.57263,0.70462 2.41666,0.97916c0.97864,0.3183 1.49481,1.13651 2.08334,1.52084c0.7988,0.52164 1.42346,1.04642 2.27914,1.44733c0.87015,0.40768 1.53214,0.69281 2.40002,1.10535c0.83716,0.39792 1.39771,1.04965 2,1.64734c0.69733,0.69202 1.45148,1.05078 2.29999,1.46664c0.76251,0.37372 2.13171,0.71094 1.93832,1.48068c-0.19049,0.75824 -1.65158,0.59006 -2.36899,0.26733c-0.83511,-0.37567 -1.2728,-1.23416 -1.97833,-1.61469c-0.9754,-0.52603 -1.72507,-0.95657 -2.56949,-1.1785c-0.80173,-0.21069 -1.56448,-0.34753 -2.24286,-1.00015c-0.58008,-0.55804 -0.87643,-1.36777 -1.57999,-1.836c-0.79932,-0.53198 -1.55997,-0.82751 -2.51984,-1.16418c-0.63519,-0.22278 -1.3895,-0.73651 -1.72699,-1.41583c-0.39688,-0.79883 -1.00079,-1.53558 -1.75317,-1.70398c-0.87885,-0.19669 -1.62106,-0.68747 -2.49866,-0.94418c-0.86298,-0.25244 -1.04269,-0.05716 -0.04733,-0.05716c0.69464,0 1.72198,0 2.66931,0c0.76135,0 1.53534,0 2.54202,0c0.79398,0 1.63599,0 2.478,0c1.15799,0 2.082,0 2.78998,0c0.98267,0 1.96802,0 2.86801,0c0.79999,0 1.70001,0 2.63599,0c0.84802,0 1.71133,0 2.60684,0c0.95718,0 1.85718,0 2.75717,0c0.79999,0 1.70001,0 2.60001,0c0.89999,0 1.79999,0 2.69998,0c0.90134,0 1.86667,0 2.54669,0c0.84,0 1.84048,-0.01392 2.69498,0.02084c0.62054,0.02524 1.98093,0.19199 2.702,0.33182c0.71637,0.13892 1.37836,0.35571 2.70035,0.56201c0.73795,0.11517 2.58401,1.01334 2.58401,0.08533c0,-0.69467 -1.35336,0 -2.36136,0c-0.828,0 -1.70932,0 -2.66666,0c-0.73199,0 -1.71332,0.09979 -2.66666,-0.16666c-0.86441,-0.24161 -1.65228,-0.77429 -2.42267,-0.82266c-0.95572,-0.06003 -0.44974,0.45804 0.28867,0.86533c1.13339,0.62512 1.60733,0.88904 2.67749,1.48648c0.58157,0.32468 1.18475,0.66 1.8045,0.9975c0.62592,0.34085 1.24725,0.68796 2.48532,1.30667c1.1506,0.57501 1.69977,0.81729 2.70834,1.27084c0.45908,0.20645 1.31201,0.51608 2.48367,1.17584c0.71945,0.40512 1.49393,0.71756 2.34134,1.17065c0.65198,0.3486 1.94574,0.54202 1.57864,-0.16266c-0.37189,-0.71387 -0.96951,-1.24738 -1.48315,-1.82135c-0.65802,-0.73532 -1.3963,-1.3992 -1.89551,-1.89999c-0.69662,-0.69885 -1.37082,-1.4903 -1.39865,-2.19998c-0.03601,-0.91782 1.03055,-1.32654 1.59866,-1.81067c0.74533,-0.63519 1.43448,-1.13159 2.19998,-1.47336c0.74353,-0.33197 1.52338,-0.82599 2.17468,-1.34131c0.66663,-0.52744 1.52533,-0.57468 2.42532,-0.57468c0.89999,0 1.80002,0 2.70001,0c0.89999,0 1.69998,0 2.60001,0c0.82083,0 1.784,0 2.64731,0c0.89551,0 2.03134,0.18134 2.03134,0c0,-0.87866 -1.78934,0 -2.69998,0c-0.85333,0 -1.79333,0 -2.67868,0c-0.79999,0 -1.70016,-0.01682 -2.60001,0c-0.96451,0.01801 -1.40811,0.70453 -1.39999,1.60001c0.00818,0.90021 0.23019,1.91095 1.10001,2.2785c0.83655,0.35349 1.70016,0.10349 2.60001,0.12149c0.90054,0.01801 1.61789,0.58914 2.39999,0.87851c0.85175,0.31512 1.85324,0.55014 2.61465,0.03616c0.66776,-0.45078 0.88419,-1.50305 1.26001,-2.31467c0.40918,-0.88364 1.40347,-1.90463 1.65601,-1.31467c0.33533,0.78333 -0.95328,1.45325 -1.63068,2.048c-0.49139,0.43146 -1.0029,1.32803 -1.70001,1.71481c-0.80338,0.44577 -1.5986,0.92325 -2.5,0.95184c-0.89954,0.02853 -1.79999,0 -2.59998,0c-0.90002,0 -1.80002,0 -2.70001,0c-0.89999,0 -1.85663,0.13657 -2.70001,-0.284c-0.66162,-0.32993 -1.5,-0.71375 -2.39999,-0.716c-0.92801,-0.00232 -0.22998,0.21912 0.60001,-0.16666c0.68707,-0.31937 0.04623,-0.59122 -0.70001,-0.186c-0.76111,0.41327 -1.74454,0.2572 -2.5,0.63666c-0.86719,0.43558 -1.59998,0.71533 -2.5,0.716c-0.89999,0.00067 -1.81314,-0.14297 -2.69998,0.01068c-0.83218,0.14417 -1.1391,1.17801 -1.68402,1.70398c-0.69028,0.66629 -2.04352,0.56421 -1.63199,1.20132c0.43295,0.67026 1.28232,1.03732 2.06784,1.07953c1.01074,0.05432 1.94815,0.00449 2.84818,0.00449c0.89999,0 1.79999,0 2.59998,0c0.90002,0 1.80002,0 2.70001,0c0.89999,0 1.80472,0.09088 2.70001,-0.00134c0.81259,-0.08368 1.50113,-0.70203 2.10898,-1.30765c0.50629,-0.50439 1.23367,-1.23367 1.94168,-1.94168c0.49866,-0.49866 0.98132,-0.98132 1.77866,-1.77866c0.66168,-0.66168 1.21262,-1.3555 2.0705,-1.84933c0.73718,-0.42435 0.51395,-1.1683 -0.42148,-0.89984c-0.74948,0.21512 -1.36099,0.59009 -2.36102,0.97852c-0.79337,0.30817 -1.56528,0.56784 -2.50748,1.09549c-0.70627,0.39551 -1.48929,0.57397 -2.21436,0.81433c-1.03906,0.34442 -1.48798,1.01938 -2.42883,1.55682c-0.73914,0.42221 -1.6647,0.22571 -2.51398,0.3905c-0.92575,0.17963 -1.64008,0.85776 -2.45267,0.9415c-0.8316,0.08569 -1.85269,0.00134 -2.54733,0.00134c-1.01669,0 -1.95267,0 -2.85269,0c-0.89999,0 -1.79999,0 -2.55716,0c-0.89551,0 -1.75882,0 -2.72198,0c-0.92084,0 -1.81885,0.00839 -1.71817,0.08533c0.67612,0.5166 1.35165,1.09409 2.02267,1.72934c0.51276,0.48541 1.41751,1.11621 2.34131,1.18533c0.81052,0.06064 2.58093,0.14359 2.23734,0.96399c-0.18076,0.43155 -1.40491,0.06516 -2.21466,0.02533c-0.87677,-0.04312 -1.8783,-0.26645 -2.73099,-0.51016c-0.62173,-0.1777 -1.6239,-0.48312 -2.34369,-0.67917c-0.74951,-0.20413 -1.52509,-0.40094 -2.31598,-0.59998c-1.19781,-0.30145 -1.98819,-0.48898 -2.73618,-0.70001c-1.0108,-0.28516 -1.98596,-0.74127 -2.6665,-1.064c-0.85593,-0.40588 -1.74332,-0.43314 -2.63882,-0.436c-0.95584,-0.00305 -1.92493,-0.61978 -1.23633,-0.97916c0.7796,-0.40689 1.78372,-0.03137 2.64581,-0.02084c0.85437,0.01044 1.8421,0.14136 2.62268,0.42532c0.73434,0.26715 1.70071,0.44348 2.51065,0.57916c0.92947,0.1557 1.47336,0.81934 2.40002,0.99103c0.92902,0.17212 1.35181,0.86087 2.29999,1.00449c0.79095,0.11981 1.48813,0.18799 2.16666,0.83334c0.63327,0.60233 1.00354,1.2829 0.83334,2.16666c-0.16974,0.88135 -1.02066,0.98956 -1.97867,1c-0.90527,0.00986 -1.86481,0.08871 -2.53732,-0.08533c-1.03375,-0.26755 -1.80826,-0.77792 -2.48401,-0.91467c-0.98328,-0.19901 -1.64981,-0.80984 -2.60001,-0.98932c-0.88443,-0.16705 -1.79999,-0.01068 -2.69998,-0.01068c-0.90002,0 -1.80017,0 -2.58536,0c-0.95065,0 -1.71597,0 -2.71466,0c-0.79999,0 -1.79999,0 -2.60001,0c-0.99982,0 -1.77914,0 -2.77847,0c-0.82019,0 -2.20755,0.04041 -2.18817,-0.83334c0.00436,-0.19705 1.0509,-0.12466 1.65732,0.004c1.04248,0.22116 1.7619,0.51944 2.46768,0.85019c1.00043,0.46884 1.74701,1.00656 2.5,1.4375c0.83298,0.47672 1.71466,0.51074 2.52081,1.04166c0.62506,0.41165 0.9595,-0.3009 0.45016,-0.98532c-0.42575,-0.57214 -1.03165,-1.11633 -1.82932,-1.91467c-0.59976,-0.60025 -1.20001,-1.20001 -1.99869,-1.99869c-0.58047,-0.58047 -1.116,-1.116 -1.84415,-1.84415c-0.55585,-0.55585 -1.25055,-1.2471 -1.95584,-1.67316c-0.74185,-0.44812 -1.33621,-0.93503 -2.20132,-1.0947c-0.83136,-0.15344 -1.58505,-0.93179 -2.39999,-0.98798c-0.84268,-0.05807 -1.2807,0.9476 -0.58936,1.56265c0.65771,0.58514 1.48074,1.16016 0.77869,1.42532c-0.83203,0.31427 -1.80023,0.02972 -2.71066,0.01053c-0.85388,-0.01801 -1.74518,-0.37167 -2.47736,-0.71585c-0.79712,-0.37469 -1.68533,-0.284 -2.54865,-0.284c-1.01669,0 -1.85269,0 -2.75235,0c-0.27899,0 0.50726,0.09482 1.15234,0.64734c0.71213,0.60992 1.16257,1.29178 2.04733,1.35266c0.89786,0.0618 1.4462,0.4491 2.18665,0.91467c0.74847,0.47061 1.79443,-0.11279 2.54401,0.36932c0.76569,0.49249 1.45584,0.716 1.22934,0.716c-0.91998,0 -1.92432,0 -2.72699,0c-0.87466,0 -1.32901,0.00006 -2.25168,0c-1.3595,-0.00009 -2.21545,0.00693 -3.01883,-0.02084c-0.74408,-0.02573 -2.02853,-0.16888 -2.77985,-0.40448c-0.62521,-0.19604 -1.68719,-0.30444 -2.57816,-0.57916c-0.76352,-0.23541 -1.08032,-1.12677 -1.75717,-1.64285c-0.65762,-0.50143 -1.74423,0.0105 -2.51132,-0.38867c-0.75938,-0.39514 -1.70322,-1.36069 -1.15067,-1.87866c0.67213,-0.63007 1.68533,-0.08533 2.72,-0.08533c0.74399,0 1.66132,0 2.57333,0c0.92133,0 2.37967,0.25046 2.37967,-0.5c0,-0.75046 -1.47406,-0.3429 -2.35834,-0.51068c-0.94589,-0.17947 -1.75003,-0.57407 -2.43335,-1.15598c-0.7399,-0.6301 -1.04041,-1.21365 -1.68399,-1.63333c-0.86412,-0.56345 -1.70584,-1.0618 -2.45334,-1.36935c-0.82439,-0.3392 -1.51195,-0.86157 -2.26132,-1.26266c-0.92923,-0.49734 -1.44571,-1.13477 -2.20401,-1.53198c-0.76222,-0.39926 -1.34723,-1.10089 -2.13866,-0.98935c-0.77328,0.10898 -0.44781,1.61804 0.33633,2.00601c0.85158,0.42133 1.47762,0.57593 2.405,0.94733c0.7756,0.31061 1.55991,0.61066 2.69049,0.87866c0.75078,0.17798 1.64513,0.37039 2.3175,0.73199c0.82872,0.44571 1.52037,1.03323 2.32533,1.38934c0.79953,0.3537 1.60431,0.85013 2.5,1c0.8382,0.14023 1.36163,0.76129 2.09982,1.2215c0.71716,0.44711 0.89972,1.56683 1.70151,1.77716c0.81592,0.21405 1.40625,0.74652 2.19867,1.168c0.64063,0.34073 1.49982,0.82291 2.39999,0.83334c0.89993,0.01041 1.8038,-0.08212 2.70001,0.00015c0.91144,0.08368 1.29648,0.71732 1.89999,1.479c0.49414,0.62369 1.43542,0.58853 2.02533,1.09552c0.58212,0.50027 1.61639,0.80527 2.32199,1.07266c0.88315,0.33466 1.77872,0.54352 2.35269,1.05716c0.73532,0.65802 1.32431,1.49301 2,1.93832c0.71567,0.47165 1.43039,0.81387 2.01599,1.44119c0.64258,0.68835 1.74011,1.27466 1.74234,0.91599c0.00534,-0.8584 -1.67712,-0.50052 -2.45834,-0.83334c-0.75153,-0.32019 -1.48846,-0.45462 -2.2215,-1.04532c-0.64633,-0.52084 -1.43225,-0.91632 -2.2785,-1.10049c-0.86954,-0.18927 -1.43344,-0.78812 -2.14667,-1.01016c-0.95633,-0.29773 -1.85461,-0.03284 -2.40149,-0.71518c-0.57443,-0.71671 -1.30368,-1.05493 -2.09052,-1.32083c-0.8519,-0.2879 -1.00854,-1.37634 -1.86133,-1.80801c-0.69089,-0.3497 -1.66547,-0.12973 -2.46167,-0.22382c-0.96674,-0.11423 -1.75015,-0.37833 -2.5285,-0.59018c-1.0369,-0.28223 -1.90128,-0.41269 -2.66251,-0.70532c-0.87427,-0.33612 -1.71082,-0.62933 -2.64731,-0.64734c-0.89987,-0.0173 -1.80002,0 -2.70001,0c-0.79999,0 -1.7,0 -2.60001,0c-0.89999,0 -1.79999,0 -2.7,0c-0.89999,0 -1.93298,0.24533 -2.616,-0.284c-0.62968,-0.48798 -1.1958,-1.15833 -2.084,-1.54935c-0.65764,-0.28952 -1.47401,-0.36984 -2.16667,-1c-0.59973,-0.54559 -1.22504,-1.54568 -0.54799,-2.08133c0.64279,-0.50854 1.58946,-0.12552 2.47867,-0.30667c0.91571,-0.18655 1.55331,-0.38586 2.73599,-0.612c0.79877,-0.15274 1.8215,-0.16666 2.52083,-0.16666c0.97917,0 1.77917,0 2.57918,0c1.00899,0 1.91434,0 2.73334,0c0.98099,0 1.70831,0 2.47565,0c1.19101,0 1.98969,0 2.78033,0c0.77469,0 1.52533,0 2.92401,0c0.63998,0 1.52499,0 2.565,0c0.88,0 1.90015,0 2.61716,0c0.90451,0 1.8045,0 2.7045,0c0.90451,0 1.92133,0 2.60001,0c0.97849,0 1.79886,0.01804 2.70001,0c0.90054,-0.01801 1.65552,-0.55923 2.62131,-0.87866c0.65457,-0.21649 1.62088,-0.41696 2.43134,-0.76868c0.87289,-0.37881 1.65186,-0.3504 2.64603,-0.35266c0.76532,-0.00174 2.10242,0.45676 2.51465,-0.28534c0.45404,-0.81732 -0.77942,-1.51749 -1.5795,-1.6575c-0.84149,-0.14725 -1.9765,-0.05716 -2.63916,-0.05716c-0.69467,0 -1.72668,0 -2.65167,0c-1.00134,0 -2.043,0 -2.84299,0c-0.80002,0 -1.80768,0.08713 -2.54285,-0.05716c-0.92953,-0.18243 -1.64932,-0.82013 -2.45715,-0.9415c-0.90857,-0.13651 -1.29721,-0.98062 -0.55334,-1.56534c0.71661,-0.56329 1.63596,-0.43066 2.68668,-0.436c0.63333,-0.0032 1.64581,0 2.30417,0c1.09799,0 2.05759,-0.10043 2.88333,0.02084c0.98785,0.14511 1.61865,0.67416 2.59381,0.89383c0.86771,0.19547 1.68533,0.08533 2.58536,0.08533c0.89999,0 1.74298,-0.1709 2.40982,-0.64734c0.66354,-0.47406 1.72351,-0.35266 2.58566,-0.35266c0.82535,0 1.78983,0 2.51517,0c0.98917,0 1.76849,0 2.76782,0c1.02151,0 1.77869,0 2.67419,0c0.86331,0 1.82648,0 2.74731,0c0.89999,0 1.80002,0 2.70001,0c0.89999,0 1.65717,0 2.55267,0c0.86331,0 1.86469,-0.04019 2.66864,0.22134c0.69766,0.22696 1.65091,0.71356 2.43134,0.77417c0.89734,0.0697 1.76334,0.00449 2.7265,0.00449c0.93152,0 1.84216,0 2.6955,0c0.94,0 1.82535,0 2.58252,0c0.89551,0 1.75882,0 2.74283,0c0.98401,0 1.68311,0.12973 2.74283,-0.00449c0.87717,-0.11111 1.41129,-0.80536 2.35718,-0.98483c0.88428,-0.16779 1.79999,-0.01068 2.69998,-0.01068c0.90002,0 1.85349,0.18137 2.70001,-0.16666c0.67108,-0.27591 1.7135,-0.69763 1.98932,-1.444c0.30832,-0.83426 0.01068,-1.78934 0.01068,-2.68933c0,-0.90002 0.04779,-1.8013 0,-2.70001c-0.04272,-0.80338 -0.41937,-1.54797 -0.97467,-2.38934c-0.40591,-0.61505 -1.5423,-0.49918 -2.02533,-1.1315c-0.52029,-0.68112 -0.92462,-1.57205 -1.60001,-2.04315c-0.73358,-0.51169 -1.69998,-0.436 -2.60001,-0.436c-0.89999,0 -1.79999,0 -2.59998,0c-0.90002,0 -1.80002,0 -2.70001,0c-0.89999,0 -1.79999,0 -2.70001,0c-0.89999,0 -1.79999,0 -2.59998,0c-0.90002,0 -1.80002,0 -2.70001,0c-0.89999,0 -1.79999,0 -2.70001,0c-0.89999,0 -1.81253,-0.09149 -2.55716,0.05716c-0.92474,0.1846 -1.59741,0.56845 -2.60684,0.91751c-0.84244,0.29132 -1.40933,0.84915 -2.336,1.02084c-0.92902,0.17212 -1.52484,0.54807 -2.17865,1.22583c-0.55807,0.57849 -1.6004,0.45367 -2.06418,1.13583c-0.47427,0.69757 -0.41928,1.57925 -1.05716,2.14282c-0.5835,0.5155 -0.95331,1.17334 -1.35718,2.15268c-0.29608,0.71799 -0.82388,1.4816 -1.39999,2.09998c-0.70285,0.75443 -1.24283,1.24734 -1.75882,1.76334l-0.72235,0.72684l-0.595,0.75717l-0.38815,0.87851" fill="none" id="svg_20" stroke="#ff0000" stroke-width="5"/>
  <path d="m326,311.75c-1,0 -1.7774,0.1243 -2.60001,0.57468c-0.78036,0.42728 -1.69998,0.42532 -2.60001,0.42532c-0.90015,0 -1.68533,0 -2.62534,0c-1.008,0 -1.76398,0 -2.67465,0c-0.89999,0 -1.82214,-0.19693 -2.69867,0.00134c-0.79868,0.18066 -0.36584,0.98065 0.59866,0.99866c0.89984,0.01682 1.80002,0 2.70016,0c0.78519,0 1.72519,0 2.41583,0c0.98401,0 1.96802,0 2.83133,0c0.89551,0 1.85269,0 2.75284,0c0.78519,0 1.72519,0 2.41583,0c0.98401,0 1.96802,0 2.83133,0c0.89551,0 1.85269,0 2.75235,0c0.35867,0 -0.49966,0 -1.39966,0c-0.90268,0 -1.67068,0 -2.70984,0c-0.77551,0 -1.82352,0 -2.5285,0c-0.97501,0 -1.94083,0 -2.76166,0c-0.90002,0 -1.80002,0 -2.70001,0c-0.79999,0 -1.70001,0 -2.60001,0c-0.89999,0 -1.79999,0 -2.69998,0c-0.90002,0 -1.80002,0 -2.70001,0c-0.79999,0 -1.70001,0 -2.63599,0c-0.84802,0 -1.71133,-0.00082 -2.72803,0c-0.836,0.00067 -1.68054,0.31107 -2.43597,0.716c-0.75598,0.40524 -1.55508,0.83566 -2.36667,1.11734c-0.79922,0.2774 -1.81271,0.12857 -2.63202,0.16666c-0.91895,0.04272 -1.41656,0.93912 -2.30133,1c-0.89786,0.0618 -1.6178,0.22275 -2.06665,1c-0.35895,0.62158 -1.33316,0.98956 -2.23334,1c-0.89993,0.01041 -1.80002,0 -2.70001,0c-0.89999,0 -1.69998,0 -2.60001,0c-0.79999,0 -0.10397,0 0.94284,0c0.9585,0 1.64252,0 2.59317,0c0.76532,0 1.76849,0.00006 2.62115,0c0.96402,-0.00009 1.76343,0.04926 2.53302,-0.05716c1.05359,-0.14566 1.94467,-0.42374 2.65265,-0.99551c0.73138,-0.5907 1.31445,-1.22934 1.35718,-2.04733c0.04694,-0.89877 -0.04807,-1.70496 -0.70984,-2.55267c-0.43451,-0.55658 -1.0853,-1.2226 -1.79016,-1.82648c-0.78186,-0.66986 -1.52545,-0.98065 -2.33334,-1.52084c-0.66849,-0.44699 -1.48926,-0.73822 -2.16666,-1.33334c-0.62955,-0.5531 -0.62997,-1.7666 -1.08401,-2.38c-0.56113,-0.75806 -1.48483,-0.96326 -1.87997,-1.72266c-0.39917,-0.76709 -0.17911,-1.93509 0.39066,-2.27866c0.87219,-0.52594 1.74246,-0.2576 2.59067,-0.27466c0.90387,-0.01816 1.81604,-0.01498 2.69333,-0.00934c0.82138,0.00531 1.92743,-0.02567 2.78934,0.16531c0.82336,0.18243 1.65823,0.73013 2.52084,0.8125c0.97495,0.09308 1.76849,0.02084 2.8125,0.02084c0.75598,0 1.69467,0 1.06665,0c-0.89999,0 -1.75018,-0.01346 -2.39999,-0.52084c-0.76804,-0.59967 -1.29108,-1.21893 -2.13599,-1.50449c-0.8399,-0.28387 -1.70929,-0.6282 -2.60684,-0.922c-0.85526,-0.27994 -1.40793,-0.88107 -2.35718,-1.04199c-0.91528,-0.15515 -0.74414,0.60675 -0.08533,1.13199c0.67456,0.53778 1.59222,1.1962 2.11484,1.57251c0.55334,0.39844 1.13156,0.80774 1.7265,1.21948c0.59805,0.41391 2.3418,1.56888 2.879,1.90067c0.50296,0.31067 1.42389,0.84796 2.22501,1.29666c0.67908,0.38034 1.44531,0.89551 2.19833,1.32635c0.8331,0.47665 1.71628,0.53632 2.65631,0.54166c0.98532,0.00558 2.0343,-0.33719 2.71869,0.16666c0.65298,0.48074 0.97382,1.40704 1.73599,1.74802c0.71808,0.32126 1.80075,-0.01398 2.63068,0.08667c0.91977,0.11154 1.45404,0.80878 2.39999,0.98798c0.92755,0.17572 0.15002,0.05167 -0.80017,-0.21082c-0.84204,-0.2326 -1.48178,-0.58844 -2.48517,-0.97983c-0.54883,-0.21408 -1.43405,-0.52472 -2.31467,-0.96533c-0.91663,-0.45865 -1.50302,-0.84952 -2.10001,-1.23785c-0.9046,-0.58844 -1.7934,-1.18744 -2.35834,-1.57465c-0.77432,-0.5307 -1.50592,-1.22873 -2.23267,-1.65918c-0.75531,-0.44736 -1.75607,-0.26767 -2.60898,-0.71432c-0.75226,-0.39395 -1.5,-0.64667 -2.40002,-0.64734c-0.89999,-0.00067 -1.75201,0.01727 -2.44131,-0.17065c-1.21631,-0.3316 -1.97141,-0.68878 -2.37952,-0.85019c-0.82718,-0.32715 -1.98337,-0.80304 -2.62717,-1.0965c-0.85779,-0.39099 -1.70767,-0.84552 -2.716,-1.42551c-0.38943,-0.224 -1.21567,-0.71252 -2.06,-1.24249c-0.41986,-0.26355 -1.58475,-1.03647 -2.22,-1.52798c-0.55582,-0.43005 -1.21646,-1.05954 -2.05566,-1.66516c-0.73709,-0.53192 -1.28793,-1.36026 -1.96698,-1.85486c-0.68695,-0.50034 -1.72253,-0.2702 -2.22269,-1.02798c-0.40335,-0.61111 -0.66788,-1.89432 0.03601,-2.12799c0.7998,-0.2655 1.672,-0.01068 2.85333,-0.01068c0.75067,0 1.56534,0 2.388,0c0.77466,0 1.97198,0 2.70532,0c0.89069,0 1.754,0 2.77069,0c0.92697,0 0.86981,0 -0.02118,0c-0.74734,0 -1.74283,0 -2.54285,0c-0.99982,0 -1.77914,0 -2.77847,0c-0.82019,0 -1.72302,0.0545 -2.52151,0.5c-0.797,0.44467 -1.55725,1.02994 -0.95834,1.52084c0.68558,0.56195 1.42334,1.02478 1.97433,1.41116c0.89218,0.62561 1.47211,1.38226 2.18851,1.56351c0.86816,0.21964 2.35791,0.06314 2.23383,-0.64285c-0.1449,-0.8244 -0.63638,-1.54602 -1.2955,-2.24283c-0.63931,-0.67584 -1.57986,-0.59189 -2.28564,-1.16251c-0.73108,-0.59109 -1.53717,-0.5705 -2.19052,-1.11398c-0.69,-0.57397 -0.82333,-1.62613 -1.66666,-1.8125c-0.87933,-0.19434 -1.60721,-0.47382 -2.5,-0.85419c-0.75153,-0.32019 -1.45148,-0.49768 -2.16666,-1c-0.69543,-0.48846 -1.63333,-0.16666 -2.53336,-0.16666c-0.89999,0 -1.79999,0 -2.69998,0c-0.89999,0 -1.98016,-0.24731 -2.54733,0.35718c-0.621,0.66187 -0.82541,1.66794 -1.11401,2.27881c-0.422,0.89316 -1.16455,1.48514 -1.60532,2.19736c-0.46878,0.75751 -1.59753,1.56015 -1.048,2.08133c0.59436,0.56366 1.71466,0.08533 2.51465,0.08533c0.90002,0 1.90259,0.39819 2.76401,-0.03601c0.69888,-0.35226 1.28687,-0.97733 1.936,-1.48483c0.76837,-0.60074 1.36462,-1.28119 2.15268,-1.422c0.85162,-0.15216 1.82648,-0.05716 2.74731,-0.05716c0.89999,0 2.33777,0.44125 2.53833,-0.35266c0.19025,-0.75308 -1.33832,-0.64734 -2.23831,-0.64734c-0.90002,0 -1.80017,0 -2.58536,0c-0.94,0 -1.948,0 -2.70398,0c-0.91068,0 -1.81067,0 -2.71066,0c-0.90002,0 -1.80002,0 -2.70001,0l-0.79999,0" fill="none" id="svg_22" stroke="#ff0000" stroke-width="5"/>
 </g>
</svg>